<svg width="414" height="300" fill="none" xmlns="http://www.w3.org/2000/svg"><rect x="72.449" y="87.5" width="124.2" height="120" rx="6" fill="#555C74"/><mask id="a" style="mask-type:alpha" maskUnits="userSpaceOnUse" x="72" y="87" width="125" height="121"><rect x="72.449" y="87.5" width="124.2" height="120" rx="6" fill="#555C74"/></mask><g mask="url(#a)"><mask id="b" style="mask-type:alpha" maskUnits="userSpaceOnUse" x="87" y="102" width="53" height="51"><path fill="#fff" d="M87.975 102.5h51.75v50h-51.75z"/></mask><g mask="url(#b)"><ellipse cx="113.85" cy="127.5" rx="25.875" ry="25" fill="#05141F"/></g><path d="M117.027 131.66c0 .071.022.115.066.115a.195.195 0 0 0 .096-.037l12.359-7.991c.209-.145.458-.221.712-.217h2.716a.672.672 0 0 1 .506.192.67.67 0 0 1 .19.504v5.164c0 .618-.14.983-.696 1.317l-3.294 1.968a.227.227 0 0 1-.112.043c-.037 0-.075-.031-.075-.145v-6.023c0-.065-.021-.115-.068-.115a.173.173 0 0 0-.093.034l-9.034 5.841a1.175 1.175 0 0 1-.693.213h-5.998a.651.651 0 0 1-.654-.421.647.647 0 0 1-.042-.272v-7.424c0-.053-.025-.102-.065-.102a.19.19 0 0 0-.097.034l-5.948 3.548c-.062.034-.078.065-.078.093 0 .028 0 .049.053.09l4.255 4.238c.056.056.096.099.096.142 0 .043-.062.074-.134.074h-3.85a.929.929 0 0 1-.684-.21l-2.579-2.568a.112.112 0 0 0-.033-.028.12.12 0 0 0-.042-.012.201.201 0 0 0-.081.028l-4.329 2.583c-.207.137-.45.209-.699.207h-3.971a.65.65 0 0 1-.505-.191.652.652 0 0 1-.192-.502v-5.067c0-.619.14-.981.697-1.315l3.312-1.983a.192.192 0 0 1 .09-.027c.05 0 .078.052.078.167v6.771c0 .072.022.106.069.106a.227.227 0 0 0 .096-.041l11.197-6.694c.217-.149.476-.224.74-.214h6.025a.669.669 0 0 1 .504.194.656.656 0 0 1 .189.502v7.431Z" fill="#fff"/><rect x="142.312" y="76.484" width="124.2" height="120" rx="6" fill="#000" fill-opacity=".2"/></g><rect width="123.385" height="120.789" rx="6" transform="matrix(.98645 .1643 -.18352 .98306 168.594 72.5)" fill="#405ADC"/><mask id="c" style="mask-type:alpha" maskUnits="userSpaceOnUse" x="147" y="73" width="143" height="138"><rect width="122.923" height="121.216" rx="6" transform="matrix(.9869 .16194 -.18618 .98262 168.996 72.5)" fill="#405ADC"/></mask><g mask="url(#c)"><rect width="122.98" height="121.168" rx="6" transform="matrix(.9678 .24539 -.27312 .96388 234.914 95)" fill="#000" fill-opacity=".2"/></g><mask id="d" style="mask-type:alpha" maskUnits="userSpaceOnUse" x="171" y="89" width="61" height="59"><path transform="matrix(.98645 .1643 -.18352 .98306 180.828 89.863)" fill="#fff" d="M0 0h51.41v50.329H0z"/></mask><g mask="url(#d)"><ellipse cx="25.705" cy="25.164" rx="25.705" ry="25.164" transform="matrix(.98645 .1643 -.18352 .98306 180.828 89.863)" fill="#1428A0"/></g><path d="M185.18 114.175a.795.795 0 0 1 .051-.304c.069-.178.22-.365.547-.31.303.05.442.29.383.604l-.067.357 1.293.215.075-.405c.234-1.256-.744-1.625-1.476-1.747-.921-.153-1.735.062-2.049.982a2.259 2.259 0 0 0-.135.78c.004 1.217 1.781 1.865 1.91 2.656a.838.838 0 0 1-.07.428c-.079.187-.232.363-.579.306-.324-.054-.478-.296-.419-.612l.102-.555-1.39-.232-.082.441c-.241 1.291.596 1.83 1.569 1.993.974.162 1.771-.072 2.076-1.017.156-.488.169-.82.171-.946.008-1.248-1.889-1.934-1.91-2.634Zm16.838 2.819a.9.9 0 0 1 .051-.3c.072-.178.221-.361.542-.308.299.05.435.287.377.599l-.066.353 1.277.212.075-.402c.232-1.244-.731-1.606-1.456-1.727-.912-.152-1.72.059-2.031.973a2.185 2.185 0 0 0-.131.771c.005 1.204 1.763 1.846 1.89 2.628a.872.872 0 0 1-.07.425c-.075.185-.227.36-.571.302-.322-.053-.477-.292-.419-.604l.103-.553-1.374-.229-.082.44c-.239 1.276.586 1.81 1.552 1.971.966.161 1.755-.071 2.055-1.006.151-.483.167-.812.166-.937.009-1.233-1.866-1.916-1.888-2.609v.001Zm11.172 5.103-.352-4.85-1.921-.32-1.067 5.712 1.272.212.821-4.809.415 5.015 1.843.307 1.067-5.713-1.28-.213-.797 4.659h-.001Zm-23.565-8.716-2.037 5.612 1.399.233 1.721-5.223-.292 5.461 1.389.232.122-5.932-2.302-.383Zm7.822 1.302-1.496 4.404.19-4.621-2.113-.352-1.189 5.754 1.294.215 1.032-5.337-.107 5.491 1.314.219 1.888-5.195-.962 5.349 1.297.217.962-5.792-2.11-.352Zm12.034 2.005-1.31-.218-.797 4.27c-.012.074-.03.157-.052.217-.054.139-.215.397-.576.337s-.417-.354-.416-.502a1.07 1.07 0 0 1 .028-.222l.797-4.27-1.309-.218-.773 4.138a6.875 6.875 0 0 0-.06.384c-.111 1.093.586 1.57 1.538 1.729.953.158 1.781-.064 2.075-1.127a3.62 3.62 0 0 0 .083-.38l.772-4.138Zm8.52 4.029-.158.842.531.089-.156.835a1.208 1.208 0 0 1-.054.217c-.05.152-.232.396-.609.333s-.455-.35-.449-.509c.003-.066.014-.148.028-.222l.492-2.638a1.39 1.39 0 0 1 .074-.268.51.51 0 0 1 .593-.333c.396.066.44.375.439.504a1.85 1.85 0 0 1-.025.225l-.06.321 1.304.217.035-.189s.043-.197.061-.384c.105-1.099-.632-1.574-1.549-1.727-.918-.153-1.769.061-2.085 1.122a4.635 4.635 0 0 0-.097.378l-.453 2.426a4.159 4.159 0 0 0-.05.385c-.112 1.067.637 1.576 1.553 1.729.916.152 1.804-.085 2.087-1.123.052-.191.069-.272.091-.378l.289-1.547-1.832-.305Z" fill="#fff"/><rect width="122.414" height="121.783" rx="6" transform="matrix(.91304 .40806 -.43753 .8993 257.967 97.773)" fill="#FC565B"/><mask id="e" style="mask-type:alpha" maskUnits="userSpaceOnUse" x="243" y="117" width="69" height="67"><path transform="matrix(.91335 .40743 -.4382 .899 265.344 117.227)" fill="#EA002C" d="M0 0h50.904v50.842H0z"/></mask><g mask="url(#e)"><ellipse cx="25.452" cy="25.421" rx="25.452" ry="25.421" transform="matrix(.91335 .40743 -.4382 .899 265.344 117.227)" fill="#EA002C"/></g><path d="M264.884 149.742c-.259-.116-.311-.347-.203-.662l1.099-3.06c1.394-3.882 3.672-10.223 4.141-11.521l.104-.293c.09-.255.19-.541.249-.661.132-.272.381-.337.597-.24.621.277 3.617 2.562 5.984 6.639-1.173-.172-3.557.051-4.615 2.249-.467.971-.481 1.879-.495 2.787-.014.914-.029 1.829-.504 2.81-1.534 3.174-5.595 2.292-6.357 1.952Z" fill="#fff"/><path d="M272.936 142.614c.9-1.847 3.133-2.124 4.404-1.817l-.002.006a22.639 22.639 0 0 1 2.339 7.235l-8.311 4.004c-.033-.027-.599-.39-1.62-.846-.486-.217-.934-.39-1.358-.534 1.302-.173 2.764-.879 3.562-2.53.568-1.173.578-2.185.588-3.13.008-.827.015-1.603.398-2.388ZM276.262 155.947c-.855 1.62-1.719 3.19-2.872 3.91l-.003.005c.097-.859.194-2.057.028-3.593-.071-1.039-.242-1.658-.27-1.76l-.003-.012c.261-.269 2.432-2.409 4.215-4.167l.001-.001c1.098-1.083 2.049-2.02 2.317-2.287 4.481 2.22 7.369 5.484 9.113 8.192-1.562.128-4.054.276-7.095-1.067a16.535 16.535 0 0 1-1.08-.524c-.207-.108-.39-.203-.582-.289-2.077-.92-2.958.091-3.769 1.593Z" fill="#fff"/><path d="M273.264 161.259a2.1 2.1 0 0 1 .013-.43l-.003-.008c1.502-.707 2.475-2.339 3.122-3.545.112-.208.217-.409.312-.59.075-.144.143-.275.204-.388.731-1.35 1.45-1.842 3.044-1.144.247.111.414.199.598.295.221.116.465.244.899.438 3.265 1.437 6.027 1.234 7.798 1.095 1.174 2.004 1.689 3.579 1.735 3.996a.438.438 0 0 1-.039.242c-.062.128-.201.223-.393.241-.137.018-.46.021-.739.023l-.294.003-6.791.074c-4.184.046-8.716.095-8.91.095a.828.828 0 0 1-.333-.058c-.132-.052-.204-.162-.223-.339Z" fill="#fff"/></svg>