<svg width="414" height="300" fill="none" xmlns="http://www.w3.org/2000/svg"><mask id="a" style="mask-type:alpha" maskUnits="userSpaceOnUse" x="0" y="-15" width="414" height="300"><path fill="#D9D9D9" d="M0-15h414v300H0z"/></mask><g mask="url(#a)"><path d="m243.641 115.783-150.688-9.767v16.888l144.141-5.266c2.3-.084 4.545-.72 6.547-1.855ZM92.953 160.5h220.344v56.842H92.953z" fill="#233384"/><path d="m252.462 185.336-8.024.055 1.216 67.639c2.605.737 6.516.519 7.972.47l-1.164-68.164Z" fill="#3348B0"/><path d="M230.534 248.493a1.501 1.501 0 0 0 1.177 1.468l15.524 3.427a1 1 0 0 0 1.215-.977v-65.56c0-.836-.684-1.511-1.52-1.499l-14.781.201a1.5 1.5 0 0 0-1.48 1.496l-.135 61.444Z" fill="#3348B0"/><path d="M248.422 251.579a2 2 0 0 0 2.045 2l60.941-1.379a2 2 0 0 0 1.955-2v-63.561a2 2 0 0 0-2.024-2l-60.941.717a2 2 0 0 0-1.976 2v64.223Z" fill="#405ADC"/><path d="m184.614 186.074-8.698.129.032 67.304c1.408 1.309 5.058 1.914 8.666 1.598v-69.031Z" fill="#3348B0"/><path d="m162.443 246.701 16.285 8.329a.8.8 0 0 0 1.164-.712v-66.656a1.5 1.5 0 0 0-1.526-1.499l-15.923.275v60.263Z" fill="#3348B0"/><path d="M179.854 253.185c0 1.124.925 2.027 2.048 1.999l62.151-1.514a2 2 0 0 0 1.952-1.999v-64.259a2 2 0 0 0-2.023-1.999l-62.151.69a1.999 1.999 0 0 0-1.977 1.999v65.083Z" fill="#405ADC"/><path d="M115.146 256.653c-1.287-.007-6.183-.139-11.181-1.526-1.34-22.942-3.219-68.776-.02-68.572 3.198.204 9.201.287 11.211.312.459 23.274 1.277 69.794-.01 69.786Z" fill="#3348B0"/><path d="M110.113 254.742a2 2 0 0 0 2.047 1.999l63.411-1.49a2 2 0 0 0 1.953-2v-65.084a2 2 0 0 0-2.023-2l-63.411.743a2 2 0 0 0-1.977 2v65.832Z" fill="#405ADC"/><path d="M92.953 251.396a1 1 0 0 0 .74.965l14.528 3.925a1.5 1.5 0 0 0 1.891-1.448v-66.485c0-.793-.617-1.449-1.408-1.498l-14.69-.899a1 1 0 0 0-1.06.998v64.442ZM253.18 44.246l-22.834 6.434v63.282l31.495-.646-.371-69.832c-3.778-.265-7.337.379-8.29.762Z" fill="#3348B0"/><path d="m228.847 51.099 25.544-7.191a1.5 1.5 0 0 1 1.907 1.444v63.434a1.5 1.5 0 0 1-1.257 1.48l-25.544 4.199a1.5 1.5 0 0 1-1.743-1.48V52.542a1.5 1.5 0 0 1 1.093-1.444Z" fill="#3348B0"/><path d="M293.357 115.925h-65.621l28.839-5.833a.955.955 0 0 1 .213-.02l60.261.92-20.178 4.543c-1.153.259-2.332.39-3.514.39Z" fill="#233384"/><path d="M256.262 45.307a2 2 0 0 1 2.108-1.997l60.789 3.302a2 2 0 0 1 1.892 1.997v60.587a2 2 0 0 1-2.037 2l-60.788-1.101a2 2 0 0 1-1.964-2V45.307Z" fill="#405ADC"/><path d="m184.733 115.24-8.561-.127.006-65.295c3.897-1.625 5.822-1.202 9.45-1.202l-.895 66.624Z" fill="#3348B0"/><path d="M179.852 50.502a2 2 0 0 1 2.07-2l62.151 2.2a2 2 0 0 1 1.93 1.998v62.007a2 2 0 0 1-2.05 1.999l-62.151-1.534a2 2 0 0 1-1.95-2v-62.67Z" fill="#405ADC"/><path d="m162.441 55.467 16.045-6.482a1 1 0 0 1 1.374.927v63.752a1.5 1.5 0 0 1-1.535 1.499l-15.884-.371V55.467ZM114.152 113.653l-7.417.277-1.387-65.841c4.22-2.036 8.203-1.777 10.212-1.847l-1.408 67.411Z" fill="#3348B0"/><path d="M110.113 48.15a2 2 0 0 1 2.071-2l63.411 2.229a2 2 0 0 1 1.929 1.998v62.709a2 2 0 0 1-2.046 2l-63.411-1.463a2 2 0 0 1-1.954-1.999V48.15Z" fill="#405ADC"/><path d="M92.953 54.536a2 2 0 0 1 1.233-1.847l14.543-6.037a1 1 0 0 1 1.383.924v64.646a1.5 1.5 0 0 1-1.319 1.489l-13.6 1.65a2 2 0 0 1-2.24-1.986V54.536ZM253.587 119.229l-8.763-.147-.697 63.911 9.46-.073v-63.691Z" fill="#3348B0"/><path d="m231.43 118.672 15.598.475a1.5 1.5 0 0 1 1.454 1.501l-.06 60.81a1.5 1.5 0 0 1-1.48 1.498l-15.512.204v-64.488Z" fill="#3348B0"/><path d="M248.428 121.166a2 2 0 0 1 2.044-1.999l60.936 1.356a2.002 2.002 0 0 1 1.956 2V180.3a2 2 0 0 1-1.979 1.999l-60.936.653a1.999 1.999 0 0 1-2.021-1.999v-59.787Z" fill="#405ADC"/><path d="m183.818 117.607-7.634-.166-1.303 66.404 8.937-.148v-66.09Z" fill="#3348B0"/><path d="M179.885 119.554a2 2 0 0 1 2.045-2l62.12 1.409a2 2 0 0 1 1.954 2v60.085a2 2 0 0 1-1.978 2l-62.119.678a1.999 1.999 0 0 1-2.022-1.999v-62.173Z" fill="#405ADC"/><path d="m162.742 117.109 15.696.376a1.5 1.5 0 0 1 1.464 1.5v63.29a1.5 1.5 0 0 1-1.482 1.5l-15.677.195-.001-66.861ZM115.02 116.068c-4.676-.223-7.997.158-8.98.344l-.831 67.87c3.263.231 7.894.351 9.811.231v-68.445Z" fill="#3348B0"/><path d="M110.113 117.957a2 2 0 0 1 2.046-2l63.411 1.455a2 2 0 0 1 1.954 2v62.43a2 2 0 0 1-1.977 2l-63.411.714a2 2 0 0 1-2.023-2v-64.599Z" fill="#405ADC"/><path d="M92.953 118.895a1 1 0 0 1 .879-.993l14.599-1.786a1.5 1.5 0 0 1 1.682 1.489v65.38c0 .864-.728 1.549-1.59 1.498l-14.63-.876a1 1 0 0 1-.94-.998v-63.714Z" fill="#3348B0"/><path fill-rule="evenodd" clip-rule="evenodd" d="M248.516 161.262h4.041l-.293-16.44h.113l5.207 16.44h7.503v-20.041h-5.22l.293 15.896h-.12l-4.846-15.896h-6.678v20.041Zm-68.544-20.032h7.216l2.603 15.487h.113l2.603-15.487h8.595l.466 20.253h-5.272l-.14-18.206h-.113l-3.522 18.206h-5.346l-3.522-18.206h-.12l-.133 18.206h-3.428V141.23Zm-32.057 16.046c.1-.384.167-1.011-.04-1.504-.467-1.122-2.106-1.983-3.9-2.926-2.398-1.259-5.072-2.664-5.593-5.031-.22-1.018-.2-1.83-.047-2.732.559-3.307 3.622-4.497 7.363-4.497 2.989 0 7.11.684 7.11 5.098v1.433h-5.259v-1.254c0-1.106-.719-1.835-1.957-1.835-1.318 0-1.778.71-1.924 1.356-.054.224-.08.652.02 1.062.252 1.009 1.843 1.816 3.658 2.738 2.454 1.245 5.316 2.698 5.829 5.136.086.429.273 1.574.02 3.32-.5 3.384-3.635 4.632-7.45 4.632-3.961 0-7.663-1.363-7.663-5.879l.007-1.561h5.639l.006 1.964c0 1.107.806 1.836 2.124 1.836 1.405 0 1.884-.685 2.057-1.356Zm14.509 4.227 2.883-18.379h.113l2.809 18.379h5.666l-3.888-20.253h-9.374l-3.908 20.253h5.699Zm53.987-5.764c.2.487.14 1.107.04 1.485-.173.665-.645 1.343-2.037 1.343-1.305 0-2.097-.723-2.097-1.817l-.007-1.945h-5.592l-.007 1.549c0 4.471 3.669 5.821 7.583 5.821 3.775 0 6.878-1.235 7.377-4.587.253-1.727.066-2.859-.027-3.282-.505-2.415-3.337-3.854-5.765-5.089-1.797-.913-3.373-1.714-3.622-2.715a2.46 2.46 0 0 1-.027-1.049c.147-.646.6-1.35 1.905-1.35 1.225 0 1.937.723 1.937 1.823v1.241h5.213v-1.407c0-4.369-4.081-5.047-7.037-5.047-3.709 0-6.738 1.177-7.297 4.452-.153.889-.173 1.695.053 2.706.525 2.334 3.168 3.722 5.539 4.966 1.781.934 3.409 1.788 3.868 2.902Zm19.719 1.286c-.106.506-.559 1.472-2.024 1.472-1.464 0-1.917-.966-2.024-1.472a3.586 3.586 0 0 1-.053-.774V141.27h-5.333v14.521a14.97 14.97 0 0 0 .047 1.33c.373 3.774 3.482 5.003 7.357 5.003 3.881 0 6.99-1.222 7.356-5.003.02-.198.06-.959.053-1.33V141.27h-5.332v14.981c.006.263 0 .557-.047.774Zm41.931 1.241c1.525 0 2.064-.934 2.157-1.471.04-.23.053-.512.053-.768v-2.936h-2.163v-2.955h7.463v5.431c0 .377-.014.659-.074 1.33-.346 3.685-3.675 5.003-7.409 5.003-3.742 0-7.064-1.318-7.417-5.003a11.63 11.63 0 0 1-.073-1.33v-8.521c0-.358.047-.992.086-1.331.473-3.787 3.662-5.002 7.397-5.002 3.741 0 7.01 1.209 7.403 5.002.067.646.047 1.331.047 1.331v.672h-5.313v-1.139c.007.006-.007-.48-.067-.774-.093-.448-.492-1.471-2.103-1.471-1.532 0-1.984.972-2.097 1.471-.06.269-.087.627-.087.959v9.263c-.007.256.007.538.047.768.093.537.625 1.471 2.15 1.471Z" fill="#fff"/></g></svg>