<svg xmlns="http://www.w3.org/2000/svg" xmlns:xlink="http://www.w3.org/1999/xlink" width="500" zoomAndPan="magnify" viewBox="0 0 375 374.999991" height="500" preserveAspectRatio="xMidYMid meet" version="1.0"><defs><g/><clipPath id="b04c463afa"><path d="M 36 154.1875 L 106 154.1875 L 106 189 L 36 189 Z M 36 154.1875 " clip-rule="nonzero"/></clipPath><clipPath id="13aaa05bfa"><path d="M 18 178 L 124 178 L 124 229.9375 L 18 229.9375 Z M 18 178 " clip-rule="nonzero"/></clipPath><clipPath id="b11d42ec7c"><path d="M 16 176 L 125 176 L 125 229.9375 L 16 229.9375 Z M 16 176 " clip-rule="nonzero"/></clipPath><clipPath id="8d61676a1f"><path d="M 65 178 L 77 178 L 77 229.9375 L 65 229.9375 Z M 65 178 " clip-rule="nonzero"/></clipPath><clipPath id="0c51eae350"><path d="M 64 176 L 78 176 L 78 229.9375 L 64 229.9375 Z M 64 176 " clip-rule="nonzero"/></clipPath><clipPath id="488d31105c"><path d="M 10.550781 176 L 131 176 L 131 203 L 10.550781 203 Z M 10.550781 176 " clip-rule="nonzero"/></clipPath></defs><path fill="#095e6a" d="M 103.140625 159.699219 C 100.792969 156.121094 96.042969 155.25 92.054688 155.5 C 83.261719 156.054688 77.09375 163.554688 73.113281 170.636719 C 72.234375 172.207031 71.507812 173.894531 70.839844 175.601562 C 70.171875 173.894531 69.445312 172.207031 68.566406 170.636719 C 64.585938 163.554688 58.410156 156.054688 49.625 155.5 C 45.636719 155.25 40.886719 156.121094 38.539062 159.699219 C 36.707031 162.488281 36.976562 166.476562 38.996094 169.042969 C 41.078125 171.691406 44.574219 172.902344 47.734375 173.6875 C 54.070312 175.273438 60.9375 175.566406 66.835938 178.574219 C 66.558594 177.980469 66.519531 177.351562 66.300781 176.75 C 65.894531 175.648438 64.914062 174.84375 63.910156 174.328125 C 61.136719 172.894531 57.902344 172.765625 54.917969 172.019531 C 53.433594 171.652344 51.792969 171.082031 50.816406 169.839844 C 49.867188 168.636719 49.742188 166.769531 50.601562 165.457031 C 51.707031 163.777344 53.933594 163.367188 55.804688 163.488281 C 59.925781 163.746094 62.820312 167.261719 64.6875 170.589844 C 65.335938 171.75 65.808594 173.042969 66.261719 174.292969 C 66.832031 175.847656 66.941406 176.875 66.839844 178.574219 C 66.863281 178.585938 66.886719 178.597656 66.910156 178.605469 C 67.710938 179.023438 68.503906 179.519531 69.226562 180.105469 C 68.480469 182.621094 68.347656 184.648438 68.523438 187.6875 C 69.117188 186.417969 69.203125 185.074219 69.683594 183.773438 C 69.953125 183.03125 70.359375 182.359375 70.839844 181.742188 C 71.320312 182.359375 71.726562 183.03125 71.996094 183.773438 C 72.476562 185.074219 72.5625 186.417969 73.15625 187.6875 C 73.332031 184.648438 73.199219 182.621094 72.453125 180.105469 C 73.175781 179.519531 73.96875 179.023438 74.769531 178.605469 C 74.792969 178.597656 74.816406 178.585938 74.839844 178.574219 C 74.738281 176.867188 74.847656 175.847656 75.417969 174.292969 C 75.871094 173.035156 76.34375 171.746094 76.992188 170.589844 C 78.859375 167.261719 81.753906 163.746094 85.875 163.488281 C 87.746094 163.367188 89.972656 163.777344 91.070312 165.457031 C 91.9375 166.769531 91.8125 168.636719 90.859375 169.839844 C 89.886719 171.082031 88.246094 171.652344 86.761719 172.019531 C 83.777344 172.765625 80.542969 172.894531 77.769531 174.328125 C 76.765625 174.84375 75.785156 175.648438 75.378906 176.75 C 75.160156 177.351562 75.121094 177.980469 74.84375 178.574219 C 80.742188 175.566406 87.609375 175.273438 93.945312 173.6875 C 97.105469 172.902344 100.605469 171.691406 102.683594 169.042969 C 104.703125 166.476562 104.972656 162.488281 103.140625 159.699219 " fill-opacity="1" fill-rule="nonzero"/><g clip-path="url(#b04c463afa)"><path stroke-linecap="round" transform="matrix(0.0520646, 0, 0, -0.0520646, -39.849555, 303.041611)" fill="none" stroke-linejoin="round" d="M 2746.398612 2753.163514 C 2701.307404 2821.888217 2610.074612 2838.61923 2533.472078 2833.817505 C 2364.586374 2823.163675 2246.118792 2679.111897 2169.666312 2543.088005 C 2152.785244 2512.927164 2138.830228 2480.515514 2126.000617 2447.728729 C 2113.171006 2480.515514 2099.21599 2512.927164 2082.334922 2543.088005 C 2005.882442 2679.111897 1887.264806 2823.163675 1718.529156 2833.817505 C 1641.926622 2838.61923 1550.69383 2821.888217 1505.602622 2753.163514 C 1470.414974 2699.59426 1475.591835 2622.991726 1514.380777 2573.699008 C 1554.370151 2522.830724 1621.519287 2499.572364 1682.216104 2484.491944 C 1803.909845 2454.030995 1935.807254 2448.403972 2049.097975 2390.633207 C 2043.771061 2402.037306 2043.020791 2414.116648 2038.819281 2425.670801 C 2031.016476 2446.828406 2012.184707 2462.283961 1992.902777 2472.187521 C 1939.63363 2499.722418 1877.5113 2502.198308 1820.190697 2516.528459 C 1791.68045 2523.580994 1760.169123 2534.534931 1741.412381 2558.393507 C 1723.180828 2581.501813 1720.779965 2617.364703 1737.285898 2642.573764 C 1758.51853 2674.83536 1801.283901 2682.713192 1837.221819 2680.387356 C 1916.37527 2675.435576 1971.970253 2607.911305 2007.833143 2543.988329 C 2020.28762 2521.705319 2029.365883 2496.871393 2038.069011 2472.862764 C 2049.022948 2443.00203 2051.123703 2423.269938 2049.173002 2390.633207 C 2049.623164 2390.408126 2050.073326 2390.183045 2050.523488 2390.032991 C 2065.904016 2382.005106 2081.13449 2372.476681 2095.014479 2361.222636 C 2080.684329 2312.905269 2078.133412 2273.966273 2081.509625 2215.595292 C 2092.913724 2239.979056 2094.564318 2265.788333 2103.792635 2290.772313 C 2108.969495 2305.027437 2116.7723 2317.932076 2126.000617 2329.786336 C 2135.228934 2317.932076 2143.031739 2305.027437 2148.208599 2290.772313 C 2157.436916 2265.788333 2159.08751 2239.979056 2170.491609 2215.595292 C 2173.867822 2273.966273 2171.316905 2312.905269 2156.986755 2361.222636 C 2170.866744 2372.476681 2186.097218 2382.005106 2201.477746 2390.032991 C 2201.927908 2390.183045 2202.37807 2390.408126 2202.828232 2390.633207 C 2200.877531 2423.419992 2202.978286 2443.00203 2213.932223 2472.862764 C 2222.635351 2497.021447 2231.713614 2521.780346 2244.168091 2543.988329 C 2280.030981 2607.911305 2335.625964 2675.435576 2414.779415 2680.387356 C 2450.717333 2682.713192 2493.482704 2674.83536 2514.565282 2642.573764 C 2531.221269 2617.364703 2528.820406 2581.501813 2510.513826 2558.393507 C 2491.832111 2534.534931 2460.320785 2523.580994 2431.810537 2516.528459 C 2374.489934 2502.198308 2312.367604 2499.722418 2259.098458 2472.187521 C 2239.816527 2462.283961 2220.984758 2446.828406 2213.181953 2425.670801 C 2208.980443 2414.116648 2208.230174 2402.037306 2202.903259 2390.633207 C 2316.19398 2448.403972 2448.091389 2454.030995 2569.78513 2484.491944 C 2630.481947 2499.572364 2697.70611 2522.830724 2737.620457 2573.699008 C 2776.409399 2622.991726 2781.58626 2699.59426 2746.398612 2753.163514 Z M 2746.398612 2753.163514 " stroke="#0d1115" stroke-width="40" stroke-opacity="1" stroke-miterlimit="10"/></g><g clip-path="url(#13aaa05bfa)"><path fill="#009178" d="M 123.675781 178.007812 L 123.675781 229.246094 L 18.003906 229.246094 L 18.003906 178.007812 L 123.675781 178.007812 " fill-opacity="1" fill-rule="nonzero"/></g><g clip-path="url(#b11d42ec7c)"><path stroke-linecap="round" transform="matrix(0.0520646, 0, 0, -0.0520646, -39.849555, 303.041611)" fill="none" stroke-linejoin="round" d="M 3140.81538 2401.512117 L 3140.81538 1417.383384 L 1111.185854 1417.383384 L 1111.185854 2401.512117 Z M 3140.81538 2401.512117 " stroke="#0d1115" stroke-width="40" stroke-opacity="1" stroke-miterlimit="10"/></g><g clip-path="url(#8d61676a1f)"><path fill="#dc231e" d="M 76.488281 178.007812 L 76.488281 229.246094 L 65.191406 229.246094 L 65.191406 178.007812 L 76.488281 178.007812 " fill-opacity="1" fill-rule="nonzero"/></g><g clip-path="url(#0c51eae350)"><path stroke-linecap="round" transform="matrix(0.0520646, 0, 0, -0.0520646, -39.849555, 303.041611)" fill="none" stroke-linejoin="round" d="M 2234.489612 2401.512117 L 2234.489612 1417.383384 L 2017.511622 1417.383384 L 2017.511622 2401.512117 Z M 2234.489612 2401.512117 " stroke="#0d1115" stroke-width="40" stroke-opacity="1" stroke-miterlimit="10"/></g><path fill="#dc231e" d="M 129.871094 180.558594 L 129.871094 198.0625 C 129.871094 199.800781 128.453125 201.214844 126.722656 201.214844 L 14.957031 201.214844 C 13.21875 201.214844 11.804688 199.800781 11.804688 198.0625 L 11.804688 180.558594 C 11.804688 178.824219 13.21875 177.410156 14.957031 177.410156 L 126.722656 177.410156 C 128.453125 177.410156 129.871094 178.824219 129.871094 180.558594 " fill-opacity="1" fill-rule="nonzero"/><g clip-path="url(#488d31105c)"><path stroke-linecap="round" transform="matrix(0.0520646, 0, 0, -0.0520646, -39.849555, 303.041611)" fill="none" stroke-linejoin="round" d="M 3259.808151 2352.519508 L 3259.808151 2016.323666 C 3259.808151 1982.936665 3232.573362 1955.776903 3199.336415 1955.776903 L 1052.664819 1955.776903 C 1019.277818 1955.776903 992.118056 1982.936665 992.118056 2016.323666 L 992.118056 2352.519508 C 992.118056 2385.831481 1019.277818 2412.991243 1052.664819 2412.991243 L 3199.336415 2412.991243 C 3232.573362 2412.991243 3259.808151 2385.831481 3259.808151 2352.519508 Z M 3259.808151 2352.519508 " stroke="#0d1115" stroke-width="40" stroke-opacity="1" stroke-miterlimit="10"/></g><g fill="#009178" fill-opacity="1"><g transform="translate(146.232416, 218.881788)"><g><path d="M 1.703125 -11.796875 C 1.703125 -14.128906 1.960938 -16.234375 2.484375 -18.109375 C 3.015625 -19.992188 3.726562 -21.632812 4.625 -23.03125 L 0.828125 -23.03125 L 0.828125 -28.53125 L 9.046875 -28.53125 L 9.046875 -34 L 17.53125 -34 L 17.53125 -28.53125 L 25.921875 -28.53125 L 25.921875 -23.03125 L 22.375 -23.03125 C 23.3125 -21.632812 24.023438 -19.988281 24.515625 -18.09375 C 25.015625 -16.195312 25.265625 -14.097656 25.265625 -11.796875 C 25.265625 -8.472656 24.753906 -5.585938 23.734375 -3.140625 C 22.710938 -0.691406 21.3125 1.191406 19.53125 2.515625 C 17.757812 3.835938 15.734375 4.5 13.453125 4.5 C 11.242188 4.5 9.25 3.835938 7.46875 2.515625 C 5.695312 1.191406 4.289062 -0.691406 3.25 -3.140625 C 2.21875 -5.585938 1.703125 -8.472656 1.703125 -11.796875 Z M 41.875 -14.296875 L 36.1875 -14.296875 L 36.1875 7.125 L 27.921875 7.125 L 27.921875 -34 L 36.1875 -34 L 36.1875 -20.234375 L 41.875 -20.234375 Z M 9.96875 -11.796875 C 9.96875 -8.210938 10.28125 -5.515625 10.90625 -3.703125 C 11.53125 -1.898438 12.394531 -1 13.5 -1 C 14.613281 -1 15.472656 -1.914062 16.078125 -3.75 C 16.691406 -5.59375 17 -8.273438 17 -11.796875 C 17 -15.347656 16.691406 -18.035156 16.078125 -19.859375 C 15.472656 -21.679688 14.613281 -22.59375 13.5 -22.59375 C 12.394531 -22.59375 11.53125 -21.6875 10.90625 -19.875 C 10.28125 -18.070312 9.96875 -15.378906 9.96875 -11.796875 Z M 9.96875 -11.796875 "/></g></g></g><g fill="#009178" fill-opacity="1"><g transform="translate(188.183708, 218.881788)"><g><path d="M 11.140625 -3.1875 L 22.59375 -3.1875 C 23.550781 -3.1875 24.457031 -3.25 25.3125 -3.375 C 26.175781 -3.507812 27.046875 -3.785156 27.921875 -4.203125 L 27.921875 -34 L 36.1875 -34 L 36.1875 -20.234375 L 41.875 -20.234375 L 41.875 -14.296875 L 36.1875 -14.296875 L 36.1875 7.125 L 27.921875 7.125 L 27.921875 1.40625 C 26.960938 1.71875 25.957031 1.945312 24.90625 2.09375 C 23.863281 2.238281 22.832031 2.3125 21.8125 2.3125 L 7.859375 2.3125 C 6.785156 2.3125 5.816406 2.039062 4.953125 1.5 C 4.097656 0.96875 3.414062 0.226562 2.90625 -0.71875 C 2.394531 -1.664062 2.140625 -2.722656 2.140625 -3.890625 L 2.140625 -32.25 L 10.40625 -32.25 L 10.40625 -4.015625 C 10.40625 -3.460938 10.648438 -3.1875 11.140625 -3.1875 Z M 11.140625 -3.1875 "/></g></g></g><g fill="#4c5270" fill-opacity="1"><g transform="translate(230.138661, 218.881788)"><g><path d="M 26.171875 -1.140625 L 26.171875 -13.0625 L 34.53125 -13.0625 L 34.53125 2.359375 C 32.519531 3.265625 30.445312 3.957031 28.3125 4.4375 C 26.1875 4.914062 24.03125 5.15625 21.84375 5.15625 C 18.695312 5.15625 15.90625 4.671875 13.46875 3.703125 C 11.039062 2.742188 8.984375 1.414062 7.296875 -0.28125 C 5.609375 -1.988281 4.332031 -3.957031 3.46875 -6.1875 C 2.613281 -8.414062 2.1875 -10.8125 2.1875 -13.375 C 2.1875 -15.726562 2.625 -18.003906 3.5 -20.203125 C 4.375 -22.410156 5.660156 -24.378906 7.359375 -26.109375 C 9.066406 -27.847656 11.164062 -29.21875 13.65625 -30.21875 C 16.144531 -31.226562 19.007812 -31.734375 22.25 -31.734375 C 23.5625 -31.734375 24.953125 -31.585938 26.421875 -31.296875 C 27.890625 -31.003906 29.304688 -30.613281 30.671875 -30.125 C 32.046875 -29.644531 33.226562 -29.085938 34.21875 -28.453125 L 32.828125 -22.421875 C 30.960938 -23.785156 29.132812 -24.742188 27.34375 -25.296875 C 25.550781 -25.859375 23.878906 -26.140625 22.328125 -26.140625 C 19.941406 -26.140625 17.863281 -25.582031 16.09375 -24.46875 C 14.332031 -23.363281 12.960938 -21.847656 11.984375 -19.921875 C 11.015625 -18.003906 10.53125 -15.820312 10.53125 -13.375 C 10.53125 -10.71875 11.050781 -8.421875 12.09375 -6.484375 C 13.144531 -4.546875 14.53125 -3.050781 16.25 -2 C 17.976562 -0.957031 19.832031 -0.4375 21.8125 -0.4375 C 22.445312 -0.4375 23.171875 -0.5 23.984375 -0.625 C 24.804688 -0.757812 25.535156 -0.929688 26.171875 -1.140625 Z M 26.171875 -1.140625 "/></g></g></g><g fill="#4c5270" fill-opacity="1"><g transform="translate(267.326738, 218.881788)"><g><path d="M 11.5 -31.25 L 11.5 4.671875 L 3.140625 4.671875 L 3.140625 -31.25 Z M 11.5 -31.25 "/></g></g></g><g fill="#4c5270" fill-opacity="1"><g transform="translate(281.965996, 218.881788)"><g><path d="M 2.96875 -31.25 L 24.21875 -31.25 L 24.21875 -25.65625 L 11.3125 -25.65625 L 11.3125 -15.609375 L 23.90625 -15.609375 L 23.90625 -10.015625 L 11.3125 -10.015625 L 11.3125 4.671875 L 2.96875 4.671875 Z M 2.96875 -31.25 "/></g></g></g><g fill="#4c5270" fill-opacity="1"><g transform="translate(307.486365, 218.881788)"><g><path d="M 19.265625 -25.65625 L 19.265625 4.671875 L 10.921875 4.671875 L 10.921875 -25.65625 L 0.609375 -25.65625 L 0.609375 -31.25 L 29.59375 -31.25 L 29.59375 -25.65625 Z M 19.265625 -25.65625 "/></g></g></g><g fill="#f04566" fill-opacity="1"><g transform="translate(147.759312, 247.120699)"><g><path d="M 5.90625 -14.046875 L 3.78125 -14.046875 L 3.78125 -12.453125 C 3.78125 -10.816406 3.457031 -9.460938 2.8125 -8.390625 C 2.175781 -7.316406 1.367188 -6.59375 0.390625 -6.21875 L 0.390625 -4.65625 C 0.847656 -4.71875 1.316406 -4.859375 1.796875 -5.078125 C 2.273438 -5.304688 2.722656 -5.582031 3.140625 -5.90625 C 3.566406 -6.238281 3.925781 -6.601562 4.21875 -7 C 4.519531 -7.394531 4.71875 -7.796875 4.8125 -8.203125 C 4.9375 -7.679688 5.226562 -7.164062 5.6875 -6.65625 C 6.144531 -6.144531 6.691406 -5.703125 7.328125 -5.328125 C 7.972656 -4.960938 8.628906 -4.738281 9.296875 -4.65625 L 9.296875 -6.21875 C 8.242188 -6.644531 7.414062 -7.378906 6.8125 -8.421875 C 6.207031 -9.472656 5.90625 -10.804688 5.90625 -12.421875 Z M 8.140625 -10.65625 L 8.140625 -9.109375 L 11.71875 -9.109375 L 11.71875 -2.125 L 13.75 -2.125 L 13.75 -14.71875 L 11.71875 -14.71875 L 11.71875 -10.65625 Z M 6.1875 1.15625 C 5.945312 1.15625 5.742188 1.070312 5.578125 0.90625 C 5.410156 0.738281 5.328125 0.539062 5.328125 0.3125 L 5.328125 -3.484375 L 3.296875 -3.484375 L 3.296875 0.5 C 3.296875 1.09375 3.457031 1.609375 3.78125 2.046875 C 4.113281 2.492188 4.53125 2.71875 5.03125 2.71875 L 13.75 2.71875 L 13.75 1.15625 Z M 6.1875 1.15625 "/></g></g></g><g fill="#f04566" fill-opacity="1"><g transform="translate(166.744295, 247.120699)"><g><path d="M 4.578125 -12.984375 L 11.359375 -12.984375 L 11.359375 -10.265625 L 5.4375 -10.265625 C 5.195312 -10.265625 4.992188 -10.34375 4.828125 -10.5 C 4.660156 -10.65625 4.578125 -10.859375 4.578125 -11.109375 Z M 13.390625 -14.53125 L 2.53125 -14.53125 L 2.53125 -10.96875 C 2.53125 -10.332031 2.722656 -9.796875 3.109375 -9.359375 C 3.492188 -8.929688 3.957031 -8.71875 4.5 -8.71875 L 13.390625 -8.71875 Z M 0.578125 -7.25 L 0.578125 -5.703125 L 6.921875 -5.703125 L 6.921875 -4.265625 L 2.53125 -4.265625 L 2.53125 -2.71875 L 11.328125 -2.71875 L 11.328125 -1.546875 L 2.53125 -1.546875 L 2.53125 0.65625 C 2.53125 1.0625 2.617188 1.429688 2.796875 1.765625 C 2.972656 2.109375 3.207031 2.382812 3.5 2.59375 C 3.789062 2.800781 4.101562 2.90625 4.4375 2.90625 L 13.578125 2.90625 L 13.578125 1.359375 L 5.4375 1.359375 C 5.195312 1.359375 4.992188 1.28125 4.828125 1.125 C 4.660156 0.96875 4.578125 0.78125 4.578125 0.5625 L 4.578125 0 L 12.171875 0 C 12.503906 0 12.789062 -0.148438 13.03125 -0.453125 C 13.269531 -0.753906 13.390625 -1.113281 13.390625 -1.53125 L 13.390625 -4.265625 L 8.96875 -4.265625 L 8.96875 -5.703125 L 15.3125 -5.703125 L 15.3125 -7.25 Z M 0.578125 -7.25 "/></g></g></g><g fill="#4c5270" fill-opacity="1"><g transform="translate(185.737874, 247.120699)"><g><path d="M 7.96875 -14.53125 C 7.0625 -14.53125 6.265625 -14.300781 5.578125 -13.84375 C 4.890625 -13.394531 4.351562 -12.796875 3.96875 -12.046875 C 3.582031 -11.296875 3.390625 -10.472656 3.390625 -9.578125 C 3.390625 -8.773438 3.5625 -8.003906 3.90625 -7.265625 C 4.257812 -6.523438 4.753906 -5.929688 5.390625 -5.484375 L 0.578125 -5.484375 L 0.578125 -3.9375 L 2.515625 -3.9375 L 2.515625 0.5 C 2.515625 1.09375 2.675781 1.609375 3 2.046875 C 3.332031 2.492188 3.753906 2.71875 4.265625 2.71875 L 13.375 2.71875 L 13.375 1.15625 L 5.40625 1.15625 C 5.175781 1.15625 4.972656 1.070312 4.796875 0.90625 C 4.628906 0.738281 4.546875 0.539062 4.546875 0.3125 L 4.546875 -3.9375 L 15.3125 -3.9375 L 15.3125 -5.484375 L 10.515625 -5.484375 C 11.128906 -5.929688 11.613281 -6.515625 11.96875 -7.234375 C 12.320312 -7.960938 12.5 -8.742188 12.5 -9.578125 C 12.5 -10.242188 12.378906 -10.875 12.140625 -11.46875 C 11.898438 -12.0625 11.570312 -12.585938 11.15625 -13.046875 C 10.75 -13.503906 10.269531 -13.863281 9.71875 -14.125 C 9.164062 -14.394531 8.582031 -14.53125 7.96875 -14.53125 Z M 7.96875 -12.984375 C 8.414062 -12.984375 8.828125 -12.820312 9.203125 -12.5 C 9.578125 -12.1875 9.878906 -11.769531 10.109375 -11.25 C 10.347656 -10.738281 10.46875 -10.179688 10.46875 -9.578125 C 10.46875 -8.960938 10.347656 -8.394531 10.109375 -7.875 C 9.878906 -7.363281 9.570312 -6.957031 9.1875 -6.65625 C 8.8125 -6.351562 8.40625 -6.203125 7.96875 -6.203125 C 7.507812 -6.203125 7.085938 -6.347656 6.703125 -6.640625 C 6.316406 -6.941406 6.003906 -7.347656 5.765625 -7.859375 C 5.535156 -8.367188 5.421875 -8.941406 5.421875 -9.578125 C 5.421875 -10.191406 5.539062 -10.753906 5.78125 -11.265625 C 6.019531 -11.785156 6.332031 -12.203125 6.71875 -12.515625 C 7.101562 -12.828125 7.519531 -12.984375 7.96875 -12.984375 Z M 7.96875 -12.984375 "/></g></g></g><g fill="#4c5270" fill-opacity="1"><g transform="translate(204.722857, 247.120699)"><g/></g></g><g fill="#009178" fill-opacity="1"><g transform="translate(213.259848, 247.120699)"><g><path d="M 0.453125 -6.96875 C 0.453125 -5.9375 0.632812 -4.992188 1 -4.140625 C 1.375 -3.296875 1.890625 -2.617188 2.546875 -2.109375 C 3.203125 -1.609375 3.941406 -1.359375 4.765625 -1.359375 C 5.609375 -1.359375 6.351562 -1.609375 7 -2.109375 C 7.65625 -2.617188 8.171875 -3.296875 8.546875 -4.140625 C 8.921875 -4.992188 9.109375 -5.9375 9.109375 -6.96875 C 9.109375 -7.832031 8.96875 -8.632812 8.6875 -9.375 C 8.40625 -10.113281 8.035156 -10.734375 7.578125 -11.234375 L 9.578125 -11.234375 L 9.578125 -12.78125 L 5.875 -12.78125 L 5.875 -14.71875 L 3.71875 -14.71875 L 3.71875 -12.78125 L 0.09375 -12.78125 L 0.09375 -11.234375 L 1.96875 -11.234375 C 1.5 -10.734375 1.128906 -10.113281 0.859375 -9.375 C 0.585938 -8.632812 0.453125 -7.832031 0.453125 -6.96875 Z M 2.5 -6.96875 C 2.5 -7.738281 2.597656 -8.429688 2.796875 -9.046875 C 2.992188 -9.671875 3.265625 -10.160156 3.609375 -10.515625 C 3.960938 -10.878906 4.347656 -11.0625 4.765625 -11.0625 C 5.191406 -11.0625 5.578125 -10.878906 5.921875 -10.515625 C 6.273438 -10.160156 6.550781 -9.671875 6.75 -9.046875 C 6.945312 -8.429688 7.046875 -7.738281 7.046875 -6.96875 C 7.046875 -6.207031 6.945312 -5.515625 6.75 -4.890625 C 6.550781 -4.273438 6.273438 -3.785156 5.921875 -3.421875 C 5.578125 -3.066406 5.191406 -2.890625 4.765625 -2.890625 C 4.347656 -2.890625 3.960938 -3.066406 3.609375 -3.421875 C 3.265625 -3.785156 2.992188 -4.273438 2.796875 -4.890625 C 2.597656 -5.515625 2.5 -6.207031 2.5 -6.96875 Z M 13.171875 -7.75 L 15.5 -7.75 L 15.5 -9.296875 L 13.171875 -9.296875 L 13.171875 -14.71875 L 11.140625 -14.71875 L 11.140625 2.71875 L 13.171875 2.71875 Z M 13.171875 -7.75 "/></g></g></g><g fill="#009178" fill-opacity="1"><g transform="translate(232.244832, 247.120699)"><g><path d="M 3.5625 -3.875 C 3.28125 -3.875 3.050781 -3.953125 2.875 -4.109375 C 2.695312 -4.265625 2.609375 -4.453125 2.609375 -4.671875 L 2.609375 -13.953125 L 0.578125 -13.953125 L 0.578125 -4.625 C 0.578125 -4 0.757812 -3.457031 1.125 -3 C 1.488281 -2.550781 1.945312 -2.328125 2.5 -2.328125 L 8 -2.328125 C 8.570312 -2.328125 9.128906 -2.363281 9.671875 -2.4375 C 10.222656 -2.519531 10.710938 -2.664062 11.140625 -2.875 L 11.140625 2.71875 L 13.171875 2.71875 L 13.171875 -7.75 L 15.5 -7.75 L 15.5 -9.296875 L 13.171875 -9.296875 L 13.171875 -14.71875 L 11.140625 -14.71875 L 11.140625 -4.34375 C 10.703125 -4.09375 10.21875 -3.953125 9.6875 -3.921875 C 9.164062 -3.890625 8.601562 -3.875 8 -3.875 Z M 3.5625 -3.875 "/></g></g></g></svg>